<?xml version="1.0" encoding="UTF-8" standalone="no"?>
<svg
   width="166.4"
   height="62.242"
   viewBox="0 0 166.4 62.242"
   version="1.1"
   id="svg5"
   sodipodi:docname="logo.svg"
   inkscape:version="1.1.1 (3bf5ae0d25, 2021-09-20)"
   xmlns:inkscape="http://www.inkscape.org/namespaces/inkscape"
   xmlns:sodipodi="http://sodipodi.sourceforge.net/DTD/sodipodi-0.dtd"
   xmlns="http://www.w3.org/2000/svg"
   xmlns:svg="http://www.w3.org/2000/svg">
  <defs
     id="defs9" />
  <sodipodi:namedview
     id="namedview7"
     pagecolor="#ffffff"
     bordercolor="#999999"
     borderopacity="1"
     inkscape:pageshadow="0"
     inkscape:pageopacity="0"
     inkscape:pagecheckerboard="0"
     showgrid="false"
     inkscape:zoom="6.5016327"
     inkscape:cx="93.822587"
     inkscape:cy="42.066357"
     inkscape:window-width="1920"
     inkscape:window-height="991"
     inkscape:window-x="-9"
     inkscape:window-y="-9"
     inkscape:window-maximized="1"
     inkscape:current-layer="svg5" />
  <g
     id="Grupo_29"
     data-name="Grupo 29"
     transform="translate(-97 -12.412)"
     style="fill:#8a4be6;fill-opacity:1">
    <path
       id="Caminho_993"
       data-name="Caminho 993"
       d="M3.727-4.1H1.974v3.019H.984V-8.546H3.455a2.925,2.925,0,0,1,1.94.574A2.066,2.066,0,0,1,6.075-6.3,2.009,2.009,0,0,1,5.7-5.086a2.249,2.249,0,0,1-1.048.774L6.4-1.143v.062H5.347Zm-1.753-.8H3.486a1.706,1.706,0,0,0,1.166-.38A1.285,1.285,0,0,0,5.086-6.3a1.353,1.353,0,0,0-.413-1.063,1.747,1.747,0,0,0-1.192-.375H1.974Zm9.8.374H8.538v2.645H12.3v.8H7.554V-8.546h4.691v.8H8.538v2.4h3.235Zm4.047.123A4.628,4.628,0,0,1,13.977-5.3a1.709,1.709,0,0,1-.577-1.31,1.805,1.805,0,0,1,.7-1.458,2.8,2.8,0,0,1,1.833-.577,3.058,3.058,0,0,1,1.371.3,2.255,2.255,0,0,1,.933.82,2.1,2.1,0,0,1,.331,1.143h-.989a1.365,1.365,0,0,0-.431-1.068,1.751,1.751,0,0,0-1.215-.388,1.793,1.793,0,0,0-1.136.321,1.071,1.071,0,0,0-.408.891.963.963,0,0,0,.387.773,3.8,3.8,0,0,0,1.318.578,6.113,6.113,0,0,1,1.456.577,2.209,2.209,0,0,1,.779.736,1.878,1.878,0,0,1,.254.989,1.744,1.744,0,0,1-.707,1.453,3.016,3.016,0,0,1-1.892.546,3.508,3.508,0,0,1-1.435-.295,2.416,2.416,0,0,1-1.028-.807,1.97,1.97,0,0,1-.361-1.164h.989a1.286,1.286,0,0,0,.5,1.069,2.1,2.1,0,0,0,1.335.392A1.935,1.935,0,0,0,17.184-2.1a1.032,1.032,0,0,0,.415-.866,1.014,1.014,0,0,0-.384-.848A4.433,4.433,0,0,0,15.82-4.409Zm9.286-3.332h-2.4v6.659h-.979V-7.741H19.334v-.8h5.772ZM30.03-3.035H26.9l-.7,1.953H25.185l2.85-7.464H28.9l2.855,7.464h-1.01Zm-2.83-.8h2.538L28.466-7.331ZM38.024-8.546v5.075a2.381,2.381,0,0,1-.664,1.728,2.675,2.675,0,0,1-1.787.754l-.261.01a2.794,2.794,0,0,1-1.953-.661,2.365,2.365,0,0,1-.738-1.82V-8.546H33.6v5.055a1.707,1.707,0,0,0,.446,1.259,1.714,1.714,0,0,0,1.271.449,1.726,1.726,0,0,0,1.279-.446,1.7,1.7,0,0,0,.443-1.256v-5.06ZM42.415-4.1H40.662v3.019h-.989V-8.546h2.471a2.925,2.925,0,0,1,1.94.574A2.066,2.066,0,0,1,44.763-6.3a2.009,2.009,0,0,1-.377,1.215,2.249,2.249,0,0,1-1.048.774l1.753,3.168v.062H44.035Zm-1.753-.8h1.512a1.706,1.706,0,0,0,1.166-.38A1.285,1.285,0,0,0,43.774-6.3a1.353,1.353,0,0,0-.413-1.063,1.747,1.747,0,0,0-1.192-.375H40.662Zm9.7,1.871H47.236l-.7,1.953H45.519l2.85-7.464h.861l2.855,7.464h-1.01Zm-2.83-.8h2.538L48.8-7.331ZM58.927-1.082h-.989L54.18-6.834v5.752H53.19V-8.546h.989l3.768,5.778V-8.546h.979Zm6.856-6.659h-2.4v6.659h-.979V-7.741H60.011v-.8h5.772Z"
       transform="translate(96.016 21.061)"
       fill="#6200ee"
       style="fill:#8a4be6;fill-opacity:1" />
    <path
       id="Caminho_994"
       data-name="Caminho 994"
       d="M20.869,33.644a11.435,11.435,0,0,1,3.926-2.5,10.4,10.4,0,0,1,5.289-.552L33,23.585a41.012,41.012,0,0,1,3.18-6.1,13.48,13.48,0,0,1,2.5-3.05,12.354,12.354,0,0,1,2.823-1.882q-.649-.13-1.233-.26t-1.233-.324a22.673,22.673,0,0,0-3.8-.649,23.2,23.2,0,0,0-4.413.032,24.515,24.515,0,0,0-4.673.941,19.263,19.263,0,0,0-4.575,2.077q-7.463,4.608-9.6,14.407a3.662,3.662,0,0,1-1.752,2.531,4.2,4.2,0,0,1-2.726.584,3.739,3.739,0,0,1-2.3-1.233,3.174,3.174,0,0,1-.552-2.92,23.251,23.251,0,0,1,1.947-5.484,25.826,25.826,0,0,1,3.083-4.737,30.627,30.627,0,0,1,3.894-3.959,33.323,33.323,0,0,1,4.38-3.147,25.558,25.558,0,0,1,5.094-2.369,29.642,29.642,0,0,1,5.711-1.33,34.028,34.028,0,0,1,5.938-.26,26.114,26.114,0,0,1,5.646.844,42.583,42.583,0,0,0,6.49,1.3,24.178,24.178,0,0,0,4.186.13A7.958,7.958,0,0,0,53.284,8.3q.681-.292.811-.357a2.444,2.444,0,0,1,3.31-.195,2.61,2.61,0,0,1,.876,1.72,2.043,2.043,0,0,1-.617,1.72,4.917,4.917,0,0,1-1.233,1.038,9.266,9.266,0,0,1-3.31,1.168,22.9,22.9,0,0,1-5.321.195,5.506,5.506,0,0,0-3.7,1.558,18.143,18.143,0,0,0-3.31,4.088,49.707,49.707,0,0,0-3.018,5.808q-1.46,3.277-2.888,6.717A7.057,7.057,0,0,0,38.1,31.47a7.952,7.952,0,0,0,1.785-.876,2.4,2.4,0,0,1,1.817-.422,2.291,2.291,0,0,1,1.558,1.006,2.452,2.452,0,0,1,.422,1.85,2.309,2.309,0,0,1-1.006,1.59,10.776,10.776,0,0,1-4.478,1.85A13.641,13.641,0,0,1,33,36.3q-1.363,3.439-2.888,6.684a57.827,57.827,0,0,1-3.245,6,29.02,29.02,0,0,1-3.764,4.867,13.642,13.642,0,0,1-4.51,3.147,15.687,15.687,0,0,1-3.634,1.233,16.578,16.578,0,0,1-3.115.324,10.761,10.761,0,0,1-4.316-.779,14.778,14.778,0,0,1-2.758-1.493,11.524,11.524,0,0,1-3.829-5,12.431,12.431,0,0,1-.779-6.425,13.356,13.356,0,0,1,3.212-7.2A18,18,0,0,1,10.421,32.8a2.212,2.212,0,0,1,1.85.032,2.339,2.339,0,0,1,1.265,3.18,2.144,2.144,0,0,1-1.3,1.265,13.543,13.543,0,0,0-5,3.407A8.65,8.65,0,0,0,5.034,45.52a7.3,7.3,0,0,0,.422,3.926,6.519,6.519,0,0,0,6.2,4.218,12.932,12.932,0,0,0,5-1.071,10.312,10.312,0,0,0,3.342-2.5,25.674,25.674,0,0,0,3.018-4.056,51.413,51.413,0,0,0,2.726-5.127q1.3-2.791,2.531-5.776a7.9,7.9,0,0,0-3.18.227A4.967,4.967,0,0,0,23.01,36.5a2.152,2.152,0,0,1-1.525.681,1.67,1.67,0,0,1-1.2-.519,1.624,1.624,0,0,1-.389-1.3A2.888,2.888,0,0,1,20.869,33.644ZM48.417,46.3a7,7,0,0,1-1.4-1.2,5.338,5.338,0,0,1-1.071-1.85,7.435,7.435,0,0,1-.357-2.628,12.616,12.616,0,0,1,.681-3.537,25.661,25.661,0,0,1,2.012-4.543q1.3-2.336,2.531-4.478.909-1.428,1.817-3.05a7.365,7.365,0,0,0,.973-2.271,2.4,2.4,0,0,1,.7-1.752,2.262,2.262,0,0,1,1.666-.714,2.392,2.392,0,0,1,1.729.681,2.519,2.519,0,0,1,.769,1.72,7.487,7.487,0,0,1-.9,3.245q-.9,1.817-2.562,4.673-.768,1.363-1.8,3.147a35.935,35.935,0,0,0-1.781,3.472,12.827,12.827,0,0,0-.973,3.083q-.227,1.4.552,1.85a1.229,1.229,0,0,0,.487.065,2.48,2.48,0,0,0,.941-.26,10.109,10.109,0,0,0,1.453-.844,18.9,18.9,0,0,0,2.021-1.622q1.153-1.038,2.247-2.239T60.2,34.909q.941-1.136,1.655-2.044t1.1-1.493a2.549,2.549,0,0,1,1.2-.973,1.393,1.393,0,0,1,1.071.032,1.03,1.03,0,0,1,.552.811,1.855,1.855,0,0,1-.487,1.363,16.153,16.153,0,0,0-1.168,1.882q-.844,1.493-2.142,3.375t-2.914,3.861A22.141,22.141,0,0,1,55.69,45.1a9.436,9.436,0,0,1-3.641,1.85A4.568,4.568,0,0,1,48.417,46.3Zm14.537-31.54a3.05,3.05,0,1,1-6.1,0,3.05,3.05,0,1,1,6.1,0ZM78.367,47.207A5.128,5.128,0,0,1,74.6,45.65q-2.661-2.661-.973-7.2a19.52,19.52,0,0,1,1.558-3.277q.973-1.655,2.012-3.342.973-1.558,1.882-3.147a17.761,17.761,0,0,0,1.363-2.888q.519-1.3.324-1.72a2.126,2.126,0,0,0-.324-.552.923.923,0,0,0-.195-.162.906.906,0,0,0-.389.032,7.158,7.158,0,0,0-2.628,1.493A29.375,29.375,0,0,0,73.3,28.842a85.685,85.685,0,0,0-5.159,6.847q-2.888,4.186-6.327,10.091a2.365,2.365,0,0,1-1.46,1.168,2.17,2.17,0,0,1-1.785-.26,2.257,2.257,0,0,1-1.2-1.4,2.4,2.4,0,0,1,.162-1.85L69.346,20.081a2.145,2.145,0,0,1,1.4-1.168,2.727,2.727,0,0,1,1.85.13,2.5,2.5,0,0,1,1.785,1.882,3.74,3.74,0,0,1-.422,2.661,14.01,14.01,0,0,1,5.062-4.024,4.55,4.55,0,0,1,4.543.195,4.659,4.659,0,0,1,1.1,1.071,4.713,4.713,0,0,1,.779,1.622,6.841,6.841,0,0,1,.195,2.174,10.739,10.739,0,0,1-.584,2.791,19.848,19.848,0,0,1-1.622,3.472q-1.038,1.785-2.142,3.537-.519.909-1.233,2.109t-1.3,2.336a11.426,11.426,0,0,0-.844,2.044q-.26.909.13,1.3a.508.508,0,0,0,.13.1,1.273,1.273,0,0,0,.389.032,5.271,5.271,0,0,0,2.3-.973,23.485,23.485,0,0,0,3.018-2.4,42.443,42.443,0,0,0,3.31-3.439,43.833,43.833,0,0,0,3.18-4.153,2.835,2.835,0,0,1,1.265-1.1,1.314,1.314,0,0,1,1.1-.032,1,1,0,0,1,.487.844,2.269,2.269,0,0,1-.519,1.46q-.195.324-.844,1.493t-1.622,2.726Q89.269,38.316,88,40.1a27.042,27.042,0,0,1-2.726,3.277,19.571,19.571,0,0,1-3.05,2.563,6.686,6.686,0,0,1-3.212,1.2A2.277,2.277,0,0,1,78.367,47.207ZM94.1,47.142a6.2,6.2,0,0,1-2.92-.714q-3.245-1.817-3.115-6.165a15.887,15.887,0,0,1,1.265-5.451,33.794,33.794,0,0,1,3.277-6.1,34.58,34.58,0,0,1,4.737-5.451,19.8,19.8,0,0,1,5.062-3.5q5.386-2.6,9.6.195l1.817-3.375q.909-1.687,1.655-3.212t1.265-2.758a13.24,13.24,0,0,0,.714-2.077A2.3,2.3,0,0,1,118.505,7a2.359,2.359,0,0,1,1.817-.357,2.3,2.3,0,0,1,1.525,1.038,2.48,2.48,0,0,1,.357,1.882,30.509,30.509,0,0,1-3.115,7.56q-2.6,4.9-6.814,12.1l-.13.26a8.488,8.488,0,0,0-.519.909q-.26.519-.584,1.038a23.666,23.666,0,0,0-2.791,7.4,6.369,6.369,0,0,0-.162,2.369q.162.811.357.941.324.195,1.46-.292a11.231,11.231,0,0,0,3.018-2.369,32.4,32.4,0,0,0,3.6-3.991q1.72-2.239,3.147-4.121a2.071,2.071,0,0,1,1.136-.941,1.392,1.392,0,0,1,1.038.065,1.12,1.12,0,0,1,.552.779,1.755,1.755,0,0,1-.389,1.33,20.182,20.182,0,0,0-1.33,1.979q-.811,1.33-1.85,2.953t-2.271,3.342a31.6,31.6,0,0,1-2.531,3.115,14.034,14.034,0,0,1-2.661,2.271,4.918,4.918,0,0,1-2.661.876,5.241,5.241,0,0,1-2.791-.844,5.325,5.325,0,0,1-1.655-1.558,6.418,6.418,0,0,1-1.006-2.855,25.651,25.651,0,0,1-4.51,3.732A8.559,8.559,0,0,1,94.1,47.142Zm15.51-22.908q-.065,0-.195-.13-.195-.13-.552-.357a2.524,2.524,0,0,0-.941-.324,4.389,4.389,0,0,0-1.4.032,8.314,8.314,0,0,0-1.979.649,16.449,16.449,0,0,0-4.218,3.05,28.539,28.539,0,0,0-3.7,4.38,27.838,27.838,0,0,0-2.628,4.7,11.707,11.707,0,0,0-1.071,4.088,2.186,2.186,0,0,0,.195,1.4q.26.292.389.422.779.454,2.3-.389A16.136,16.136,0,0,0,99.3,38.933a49.379,49.379,0,0,0,4.186-4.965,58.288,58.288,0,0,0,4.38-6.879l.324-.454ZM126.39,47.207a8.277,8.277,0,0,1-5.711-1.752,7.254,7.254,0,0,1-2.239-3.764,11.657,11.657,0,0,1-.1-4.51,19.247,19.247,0,0,1,1.428-4.7,28.027,28.027,0,0,1,2.4-4.348,28.988,28.988,0,0,1,3.732-4.575,21.829,21.829,0,0,1,4.381-3.439,11.993,11.993,0,0,1,4.51-1.622,6.555,6.555,0,0,1,4.186.811,5.691,5.691,0,0,1,2.4,2.5,6.051,6.051,0,0,1,.519,3.537,8.7,8.7,0,0,1-.844,3.05,13.577,13.577,0,0,1-1.785,2.791,11.931,11.931,0,0,1-2.5,2.271,11.742,11.742,0,0,1-3.05,1.493A16.834,16.834,0,0,1,132,35.3a8.971,8.971,0,0,1-2.174.065,8.832,8.832,0,0,1-2.434-.584,11.965,11.965,0,0,1-2.628-1.46,19.6,19.6,0,0,0-1.071,2.563,11.949,11.949,0,0,0-.552,2.369,6.381,6.381,0,0,0,.065,2.044,2.939,2.939,0,0,0,.779,1.525,4.394,4.394,0,0,0,3.829,1.071,15.247,15.247,0,0,0,5.321-1.817,31.725,31.725,0,0,0,5.776-4.056,36.148,36.148,0,0,0,5.257-5.646,2.619,2.619,0,0,1,1.265-1.071,1.379,1.379,0,0,1,1.1,0,1,1,0,0,1,.487.844,2.164,2.164,0,0,1-.584,1.46,53.708,53.708,0,0,1-9.572,10.351q-4.77,3.8-8.923,4.186a4.729,4.729,0,0,1-.779.065Zm1.038-18.041a4.862,4.862,0,0,0,4.8,1.1,6.442,6.442,0,0,0,2.726-1.59,10.223,10.223,0,0,0,1.85-2.369,5.918,5.918,0,0,0,.779-2.271,1.363,1.363,0,0,0-.552-1.428,2.066,2.066,0,0,0-1.72-.065,9.622,9.622,0,0,0-2.5,1.2,17.893,17.893,0,0,0-2.791,2.271A19.524,19.524,0,0,0,127.428,29.166Zm17.36,2.206q.909-1.428,1.817-3.115t1.687-3.439a36.1,36.1,0,0,0,1.33-3.439,18.725,18.725,0,0,0,.746-2.985,3.142,3.142,0,0,1,.973-1.979A2.1,2.1,0,0,1,152.9,15.8a1.529,1.529,0,0,1,1.233.909,3.547,3.547,0,0,1,0,2.531,11.159,11.159,0,0,1,2.985.552,4.818,4.818,0,0,1,2.466,1.85,5.751,5.751,0,0,1,.779,4.056,15.49,15.49,0,0,1-2.206,5.549q-1.947,3.245-3.018,5.159a16.451,16.451,0,0,0-1.525,3.537,8.228,8.228,0,0,0-.357,1.655q-.032.552.1.681a3.483,3.483,0,0,0,.909-.292,8.236,8.236,0,0,0,1.979-1.4,30.037,30.037,0,0,0,3.083-3.277,53.436,53.436,0,0,0,4.153-5.938,3.065,3.065,0,0,1,1.233-1.2,1.428,1.428,0,0,1,1.136-.1.936.936,0,0,1,.584.779,2.263,2.263,0,0,1-.487,1.493q-1.038,1.687-2.531,4.218t-3.18,4.867a28.392,28.392,0,0,1-3.472,4.024,5.134,5.134,0,0,1-3.407,1.687,4.436,4.436,0,0,1-3.18-1.168,5.037,5.037,0,0,1-1.752-2.823,7.965,7.965,0,0,1,.26-3.7,25.8,25.8,0,0,1,1.947-4.77q1.363-2.661,3.31-5.97a10.5,10.5,0,0,0,1.493-3.245q.13-.973.13-1.038a2.353,2.353,0,0,0-.876-.292,9.257,9.257,0,0,0-2.823.162q-.649,1.233-1.363,2.531t-1.363,2.434q-.649,1.136-1.2,2.044a11.628,11.628,0,0,1-.876,1.3,2.49,2.49,0,0,1-1.168.941,1.5,1.5,0,0,1-1.1.032.854.854,0,0,1-.519-.746A2.429,2.429,0,0,1,144.788,31.373Z"
       transform="translate(96.955 16.09)"
       fill="#6200ee"
       style="fill:#8a4be6;fill-opacity:1" />
  </g>
  <path
     style="fill:#0000ff;stroke-width:0.116201"
     d="M 9.3541896,61.948252 C 7.328852,61.497859 5.1801453,60.386818 3.7479385,59.049406 3.0322297,58.381067 2.0489058,57.083879 1.5131434,56.101292 -0.39304949,52.605338 -0.39333547,47.916466 1.5124145,44.152307 3.0397874,41.135503 6.4694304,38.118865 9.9545526,36.72679 c 1.0204484,-0.407601 1.5861954,-0.441564 2.2465644,-0.134865 1.148949,0.533611 1.694239,1.694997 1.320265,2.811963 -0.266593,0.796243 -0.653573,1.148686 -1.900636,1.73101 -1.555082,0.726153 -2.6434124,1.45362 -3.802247,2.541514 -1.5778772,1.481283 -2.3304736,2.834193 -2.7879928,5.011854 -0.560694,2.668744 0.2083573,5.255372 2.0729216,6.972067 0.873131,0.803888 1.6397092,1.220598 2.783595,1.513154 1.0652162,0.272437 2.0313972,0.289071 3.5342062,0.06085 4.420523,-0.671319 7.173338,-3.074342 10.633631,-9.282443 1.312066,-2.353976 4.306399,-8.939454 4.167122,-9.16481 -0.09984,-0.161547 -1.884456,-0.09892 -2.750999,0.09654 -1.014842,0.228909 -1.561016,0.490058 -2.42219,1.158153 -0.360928,0.280006 -0.795729,0.562139 -0.966224,0.626961 -1.082146,0.411432 -2.158422,-0.326043 -2.151364,-1.474137 0.0043,-0.697231 0.526795,-1.503857 1.503645,-2.321266 2.223252,-1.860372 5.115253,-2.848077 7.731629,-2.640581 l 0.929609,0.07372 1.55754,-3.761058 c 1.782664,-4.304674 2.835927,-6.513797 4.140804,-8.684964 1.495346,-2.488087 3.056312,-4.107318 5.016017,-5.203247 l 0.776086,-0.434013 -1.779419,-0.436371 c -3.173433,-0.778229 -3.73384,-0.848792 -6.689799,-0.842343 -2.205079,0.0048 -2.906399,0.04885 -4.008938,0.251722 -5.949373,1.094723 -10.615172,4.045836 -13.728296,8.68313 -1.41306,2.104886 -2.840427,5.50872 -3.410952,8.134078 -0.362515,1.668167 -1.02241,2.552936 -2.3685938,3.175749 -0.8930679,0.41318 -2.2349707,0.430423 -3.104758,0.0399 C 5.4410618,34.755494 4.7238158,33.831542 4.5391973,32.708595 4.3719517,31.691318 5.636112,27.758396 6.8630922,25.478738 9.6509599,20.299042 14.643735,15.613471 20.217762,12.945777 24.509246,10.891899 29.721053,9.9285672 34.93248,10.22596 c 2.164083,0.123494 3.303643,0.31063 6.086513,0.999512 2.828423,0.700159 5.12632,1.082609 7.146368,1.189405 3.199997,0.169178 4.938269,-0.103874 6.21676,-0.976543 1.015026,-0.692834 2.066752,-0.654852 2.933236,0.105931 0.777888,0.682995 1.060585,1.848752 0.655389,2.702639 -0.269067,0.567017 -1.271857,1.438648 -2.142959,1.862673 -1.772709,0.862899 -3.233398,1.113816 -6.674716,1.146582 -2.236862,0.0213 -2.498326,0.04556 -3.13743,0.291092 -1.020903,0.392215 -1.517892,0.738449 -2.567451,1.78864 -1.489051,1.48995 -2.621545,3.133672 -4.211161,6.112153 -1.175128,2.201852 -4.489112,9.811401 -4.362275,10.016629 0.107026,0.173172 2.271982,0.03743 2.980525,-0.186875 0.589275,-0.186549 1.38335,-0.564138 2.230656,-1.060693 1.10698,-0.648732 2.507365,-0.272958 3.166421,0.849669 0.413303,0.704013 0.449622,1.72526 0.08357,2.349984 -0.632154,1.07888 -3.093645,2.318043 -5.317079,2.676721 -0.850193,0.137151 -3.768843,0.09416 -4.728936,-0.06965 l -0.408408,-0.06968 -0.624919,1.549186 c -1.87067,4.637422 -4.452187,9.708098 -6.260893,12.297788 -1.63416,2.339775 -3.549061,4.398317 -5.06458,5.444483 -1.68154,1.16077 -3.86269,2.102999 -5.984215,2.585106 -1.519428,0.345282 -4.305321,0.403836 -5.5927094,0.117548 z"
     id="path85" />
  <path
     style="fill:#0000ff;stroke-width:0.116201"
     d="M 6.681564,3.8346367 V 0.11620111 H 8.9474857 11.213407 V 0.46480445 0.81340779 H 9.3541896 7.4949718 V 2.09162 3.3698323 H 9.1217874 10.748603 V 3.7184356 4.067039 H 9.1217874 7.4949718 V 5.4614523 6.8558657 H 9.3541896 11.213407 V 7.204469 7.5530723 H 8.9474857 6.681564 Z"
     id="path124" />
  <path
     style="fill:#0000ff;stroke-width:0.116201"
     d="M 6.681564,3.8346367 V 0.11620111 H 8.9474857 11.213407 V 0.46480445 0.81340779 H 9.3541896 7.4949718 V 2.09162 3.3698323 H 9.1217874 10.748603 V 3.7184356 4.067039 H 9.1217874 7.4949718 V 5.4614523 6.8558657 H 9.3541896 11.213407 V 7.204469 7.5530723 H 8.9474857 6.681564 Z"
     id="path163" />
  <path
     style="fill:#c8ace8;fill-opacity:1;stroke-width:0.0126269"
     d="M 6.6922606,3.8385797 V 0.12626907 H 8.9524769 11.212693 V 0.46719555 0.80812204 H 9.3502245 7.4877557 v 1.28163106 1.281631 h 1.628871 1.6288713 v 0.34724 0.3472399 H 9.1166267 7.4877557 v 1.3952732 1.3952732 h 1.8624688 1.8624685 v 0.3472399 0.34724 H 8.9524769 6.6922606 Z"
     id="path46241" />
  <path
     style="fill:#c8ace8;fill-opacity:1;stroke-width:0.0126269"
     d="M 6.6922606,3.8385797 V 0.12626907 H 8.9524769 11.212693 V 0.46719555 0.80812204 H 9.3502245 7.4877557 v 1.28163106 1.281631 h 1.628871 1.6288713 v 0.34724 0.3472399 H 9.1166267 7.4877557 v 1.3952732 1.3952732 h 1.8624688 1.8624685 v 0.3472399 0.34724 H 8.9524769 6.6922606 Z"
     id="path46378" />
  <path
     style="fill:#c8ace8;fill-opacity:1;stroke-width:0.0126269"
     d="M 6.6922606,3.8385797 V 0.12626907 H 8.9524769 11.212693 V 0.46719555 0.80812204 H 9.3502245 7.4877557 v 1.28163106 1.281631 h 1.628871 1.6288713 v 0.34724 0.3472399 H 9.1166267 7.4877557 v 1.3952732 1.3952732 h 1.8624688 1.8624685 v 0.3472399 0.34724 H 8.9524769 6.6922606 Z"
     id="path46417" />
  <path
     style="fill:#c8ace8;fill-opacity:1;stroke-width:0.0126269"
     d="M 6.6922606,3.8385797 V 0.12626907 H 8.9524769 11.212693 V 0.46719555 0.80812204 H 9.3502245 7.4877557 v 1.28163106 1.281631 h 1.628871 1.6288713 v 0.34724 0.3472399 H 9.1166267 7.4877557 v 1.3952732 1.3952732 h 1.8624688 1.8624685 v 0.3472399 0.34724 H 8.9524769 6.6922606 Z"
     id="path46456" />
  <path
     style="fill:#c8ace8;fill-opacity:1;stroke-width:0.0126269"
     d="M 6.6922606,3.8385797 V 0.12626907 H 8.9524769 11.212693 V 0.46719555 0.80812204 H 9.3502245 7.4877557 v 1.28163106 1.281631 h 1.628871 1.6288713 v 0.34724 0.3472399 H 9.1166267 7.4877557 v 1.3952732 1.3952732 h 1.8624688 1.8624685 v 0.3472399 0.34724 H 8.9524769 6.6922606 Z"
     id="path46495" />
  <path
     style="fill:#c8ace8;fill-opacity:1;stroke-width:0.0126269"
     d="M 6.6922606,3.8385797 V 0.12626907 H 8.9524769 11.212693 V 0.46719555 0.80812204 H 9.3502245 7.4877557 v 1.28163106 1.281631 h 1.628871 1.6288713 v 0.34724 0.3472399 H 9.1166267 7.4877557 v 1.3952732 1.3952732 h 1.8624688 1.8624685 v 0.3472399 0.34724 H 8.9524769 6.6922606 Z"
     id="path46534" />
  <path
     style="fill:#c8ace8;fill-opacity:1;stroke-width:0.0126269"
     d="M 6.6922606,3.8385797 V 0.12626907 H 8.9524769 11.212693 V 0.46719555 0.80812204 H 9.3502245 7.4877557 v 1.28163106 1.281631 h 1.628871 1.6288713 v 0.34724 0.3472399 H 9.1166267 7.4877557 v 1.3952732 1.3952732 h 1.8624688 1.8624685 v 0.3472399 0.34724 H 8.9524769 6.6922606 Z"
     id="path46573" />
  <path
     style="fill:#c8ace8;fill-opacity:1;stroke-width:0.00390625"
     d="M 6.6914062,4.5625 V 2.0976563 H 7.0898437 7.4882812 V 2.734375 3.3710938 H 8.5136719 9.5390625 V 3.71875 4.0664062 H 8.5136719 7.4882812 v 1.3945313 c 0,0.9270832 0.00131,1.3945312 0.00391,1.3945312 0.0026,0 0.00391,-0.4667968 0.00391,-1.3925781 V 4.0703125 H 8.5175856 9.53907 v 0.025391 0.025391 H 8.5449219 7.5507812 v 1.324218 1.3242187 H 8.5449219 9.5390625 V 6.8984375 7.0273437 H 8.1152344 6.6914062 Z"
     id="path46612" />
  <path
     style="fill:#c8ace8;fill-opacity:1;stroke-width:0.00390625"
     d="M 6.5703125,4.5625 V 2.0976563 H 7.0292969 7.4882812 V 2.734375 3.3710938 H 8.5136719 9.5390625 V 3.71875 4.0664062 H 8.5136719 7.4882812 v 1.3945313 c 0,0.9270832 0.00131,1.3945312 0.00391,1.3945312 0.0026,0 0.00391,-0.4667968 0.00391,-1.3925781 V 4.0703125 H 8.5175856 9.53907 v 0.025391 0.025391 H 8.5449219 7.5507812 V 5.4453133 6.769532 h 0.9941407 0.9941406 v 0.1289063 0.1289062 h -1.484375 -1.484375 z"
     id="path46651" />
  <path
     style="fill:#c8ace8;fill-opacity:1;stroke-width:0.00390625"
     d="M 6.5703125,4.5625 V 2.0976563 H 7.0292969 7.4882812 V 2.734375 3.3710938 H 8.5136719 9.5390625 V 3.71875 4.0664062 H 8.5136719 7.4882812 v 1.3886719 c 0,1.0196824 0.00116,1.3886719 0.00436,1.3886719 0.00321,0 0.00359,-0.3667285 0.00144,-1.3867188 l -0.00292,-1.3867187 h 1.0239525 1.0239526 v 0.025391 0.025391 H 8.5449219 7.5507812 V 5.4453133 6.769532 h 0.9941407 0.9941406 v 0.1289063 0.1289062 h -1.484375 -1.484375 z"
     id="path46729" />
  <path
     style="fill:#c8ace8;fill-opacity:1;stroke-width:0.00390625"
     d="M 6.5703125,4.5625 V 2.0976563 h 0.4589727 0.4589727 l 0.001,0.6376953 10e-4,0.6376953 9.648e-4,-0.6376953 9.648e-4,-0.6376953 h 0.029297 0.029297 V 2.7011719 3.3046875 H 9.1699219 10.789063 V 3.7128906 4.1210937 H 9.1699219 7.5507812 V 5.4453125 6.7695312 H 9.4316406 11.3125 V 6.8984375 7.0273437 H 8.9414063 6.5703125 Z M 7.4952936,5.4404297 7.4935672,4.0703125 H 9.1217836 10.75 V 3.71875 3.3671875 l -1.6279297,9.719e-4 -1.6279297,9.719e-4 1.6259766,9.859e-4 1.6259768,9.858e-4 V 3.7187546 4.0664062 H 9.1171875 7.4882812 v 1.3746806 c 0,0.7560741 0.0013,1.3779003 0.00289,1.3818359 0.0025,0.00619 0.00309,0.00584 0.00437,-0.00261 8.112e-4,-0.00537 6.981e-4,-0.6263184 -2.516e-4,-1.3798828 z"
     id="path46846" />
  <path
     style="fill:#c8ace8;fill-opacity:1;stroke-width:0.00390625"
     d="M 6.5703125,4.5625 V 2.0976563 H 7.029285 7.4882576 l 0.001,0.6298828 10e-4,0.6298828 9.647e-4,-0.6298828 9.646e-4,-0.6298828 h 0.029297 0.029297 v 0.6035156 0.6035156 h 1.619141 1.6191411 V 3.7128906 4.1210937 H 9.1699219 7.5507812 V 5.4453125 6.7695312 H 9.4316406 11.3125 V 6.8984375 7.0273437 H 8.9414063 6.5703125 Z M 7.495656,5.445313 C 7.4948225,4.6869148 7.492826,4.066407 7.491206,4.0664067 c -0.00354,-5e-7 -0.00392,2.6939652 -3.839e-4,2.7314449 0.00137,0.014502 0.00336,0.026367 0.00442,0.026367 0.00106,0 0.00125,-0.6205074 4.116e-4,-1.3789057 z M 10.75,3.7167969 V 3.3671875 l -1.6162109,9.719e-4 -1.616211,9.718e-4 1.6142578,9.86e-4 1.6142581,9.859e-4 v 0.3476516 c 0,0.1912083 8.79e-4,0.3476515 0.002,0.3476515 0.0011,0 0.002,-0.1573242 0.002,-0.3496093 z"
     id="path46924" />
  <path
     style="fill:#c8ace8;fill-opacity:1;stroke-width:0.00390625"
     d="M 6.5703125,4.5625 V 2.0976563 h 0.4589712 0.4589711 l 0.001,0.5634765 10e-4,0.5634766 9.632e-4,-0.5634766 9.633e-4,-0.5634765 h 0.029297 0.029297 V 2.7011719 3.3046875 H 9.1699219 10.789063 V 3.7128906 4.1210937 H 9.1699219 7.5507812 V 5.4453125 6.7695312 H 9.4316406 11.3125 V 6.8984375 7.0273437 H 8.9414063 6.5703125 Z M 7.4927433,4.494141 c -0.00248,-0.3350174 -0.00321,-0.1314769 -0.00331,0.9238281 -6.75e-5,0.7444336 9.628e-4,1.3640625 0.00229,1.3769532 0.00376,0.036493 0.00458,-1.8199961 0.00102,-2.3007813 z M 10.749022,3.6435547 c -5.92e-4,-0.077881 -0.0011,-0.01416 -0.0011,0.1416016 0,0.1557617 4.84e-4,0.2194824 0.0011,0.1416015 5.91e-4,-0.077881 5.91e-4,-0.2053223 0,-0.2832031 z M 9.8935547,3.3681641 c -0.3539551,-5.498e-4 -0.9331543,-5.498e-4 -1.2871094,0 -0.3539551,5.5e-4 -0.064356,9.998e-4 0.6435547,9.998e-4 0.7079102,0 0.99751,-4.498e-4 0.6435547,-9.998e-4 z"
     id="path46963" />
  <path
     style="fill:#c8ace8;fill-opacity:1;stroke-width:0.00390625"
     d="M 6.5703125,4.5625 V 2.0976563 H 7.0292807 7.488249 l 0.00101,0.4580078 0.00101,0.4580078 9.602e-4,-0.4580078 9.603e-4,-0.4580078 h 0.029297 0.029297 V 2.7011719 3.3046875 H 9.1699219 10.789063 V 3.7128906 4.1210937 H 9.1699219 7.5507812 V 5.4453125 6.7695312 H 9.4316406 11.3125 V 6.8984375 7.0273437 H 8.9414063 6.5703125 Z m 0.9248904,1.1904297 c -5.454e-4,-0.5462402 -0.00192,-1.0863281 -0.00305,-1.2001953 -0.00113,-0.1138672 -0.00225,0.3238281 -0.00248,0.9726562 -3.836e-4,1.0853985 1.597e-4,1.2207031 0.0049,1.2207031 8.946e-4,0 0.00118,-0.4469238 6.349e-4,-0.993164 z M 10.74902,3.6962891 c -6.2e-4,-0.048877 -0.0011,-0.00889 -0.0011,0.088867 0,0.097754 5.07e-4,0.1377441 0.0011,0.088867 6.19e-4,-0.048877 6.19e-4,-0.1288574 0,-0.177734 z M 9.6748047,3.3681643 c -0.2035645,-5.59e-4 -0.5366699,-5.59e-4 -0.7402344,0 -0.2035644,5.591e-4 -0.037012,0.00102 0.3701172,0.00102 0.4071289,0 0.5736816,-4.573e-4 0.3701172,-0.00102 z"
     id="path47002" />
  <path
     style="fill:#c8ace8;fill-opacity:1;stroke-width:0.00390625"
     d="M 6.5703125,4.5625 V 2.0976563 h 0.458964 0.4589641 l 0.00102,0.3603515 0.00102,0.3603516 9.56e-4,-0.3603516 9.56e-4,-0.3603515 h 0.029297 0.029297 V 2.7011719 3.3046875 H 9.1699219 10.789063 V 3.7128906 4.1210937 H 9.1699219 7.5507812 V 5.4453125 6.7695312 H 9.4316406 11.3125 V 6.8984375 7.0273437 H 8.9414063 6.5703125 Z m 0.9224406,0.2480469 c -0.00244,-0.2121687 -0.00334,-0.035462 -0.00382,0.7519531 -3.445e-4,0.5661133 6.869e-4,1.0600586 0.00229,1.0976562 0.00409,0.09582 0.00542,-1.5120366 0.00153,-1.8496093 z M 10.749014,3.7314453 c -6.64e-4,-0.029541 -0.0012,-0.00537 -0.0012,0.053711 0,0.059082 5.43e-4,0.083252 0.0012,0.053711 6.63e-4,-0.029541 6.63e-4,-0.077881 0,-0.107422 z M 9.3505859,3.3681767 c -0.025244,-6.804e-4 -0.066553,-6.804e-4 -0.091797,0 -0.025244,6.804e-4 -0.00459,0.00124 0.045898,0.00124 0.050488,0 0.071143,-5.567e-4 0.045898,-0.00124 z m 0.3554688,7.15e-5 c -0.00806,-8.428e-4 -0.02124,-8.428e-4 -0.029297,0 -0.00806,8.427e-4 -0.00146,0.00153 0.014648,0.00153 0.016113,0 0.022705,-6.895e-4 0.014648,-0.00153 z"
     id="path47041" />
  <path
     style="fill:#c8ace8;fill-opacity:1;stroke-width:0.00390625"
     d="M 6.5703125,6.4375 V 5.3085937 h 0.4589844 0.4589843 l 4.626e-4,0.631836 c 2.543e-4,0.3475098 2.543e-4,0.6331543 0,0.6347656 -2.543e-4,0.00161 0.0013,0.00293 0.00344,0.00293 0.00259,0 0.00391,-0.2141927 0.00391,-0.6347656 v -0.634766 h 0.027344 0.027344 V 6.0390625 6.7695312 H 9.4316406 11.3125 V 7.1679687 7.5664062 H 8.9414063 6.5703125 Z M 8.9541016,7.5517578 6.6914062,7.5507745 V 7.2890591 c 0,-0.2300317 -7.093e-4,-0.2617154 -0.00586,-0.2617154 -0.00515,0 -0.00586,0.031901 -0.00586,0.2636719 v 0.2636719 l 2.2685547,-9.732e-4 2.2685551,-9.732e-4 z"
     id="path47119" />
  <path
     style="fill:#c8ace8;fill-opacity:1;stroke-width:0.00390625"
     d="M 6.5703125,6.4375 V 5.3085937 h 0.4589844 0.4589843 l 4.493e-4,0.6259766 c 2.468e-4,0.3442871 0.0019,0.6189453 0.00368,0.6103516 0.00178,-0.00859 0.00333,-0.2902832 0.00346,-0.6259766 l 2.251e-4,-0.6103516 h 0.027344 0.027344 V 6.0390625 6.7695312 H 9.4316406 11.3125 V 7.1679687 7.5664062 H 8.9414063 6.5703125 Z m 2.0830355,1.1142578 -1.9618864,-9.843e-4 -0.001,-0.2607383 c -6.569e-4,-0.1705519 -0.00236,-0.2607383 -0.00491,-0.2607383 -0.00256,0 -0.00425,0.090839 -0.00491,0.2626953 l -0.001,0.2626953 1.9678009,-9.727e-4 1.9678005,-9.727e-4 z"
     id="path47158" />
  <path
     style="fill:#c8ace8;fill-opacity:1;stroke-width:0.00390625"
     d="M 6.5703125,6.4375 V 5.3085937 h 0.4589844 0.4589843 l 4.629e-4,0.5712891 c 2.547e-4,0.314209 1.746e-4,0.5734994 -1.778e-4,0.5762009 -3.523e-4,0.0027 0.00114,0.00797 0.00332,0.011719 0.0027,0.00463 0.004,-0.1798142 0.00408,-0.5762008 L 7.4960849,5.308594 h 0.027344 0.027344 V 6.0390625 6.7695312 H 9.4316406 11.3125 V 7.1679687 7.5664062 H 8.9414063 6.5703125 Z M 7.8701172,7.5517579 6.6914062,7.5507685 V 7.3130666 c 0,-0.130736 -0.00125,-0.248946 -0.00278,-0.2626889 l -0.00278,-0.024987 -0.00279,0.017578 c -0.00154,0.00967 -0.00293,0.1287598 -0.00308,0.2646485 L 6.6796867,7.5546875 7.864257,7.5537173 9.0488273,7.5527472 Z m 2.0661113,7e-7 c -0.098453,-5.811e-4 -0.2584142,-5.809e-4 -0.3554687,4e-7 -0.097055,5.814e-4 -0.016502,0.00106 0.1790058,0.00106 0.1955078,-2e-7 0.2749164,-4.759e-4 0.1764629,-0.00106 z"
     id="path47197" />
  <path
     style="fill:#c8ace8;fill-opacity:1;stroke-width:0.00390625"
     d="M 6.5703125,6.4375 V 5.3085937 h 0.4589844 0.4589843 l 5.501e-4,0.5712891 c 3.023e-4,0.314209 0.00189,0.5616211 0.00352,0.5498047 0.00163,-0.011816 0.00314,-0.2688965 0.00336,-0.5712891 l 3.863e-4,-0.5498047 h 0.027344 0.027344 V 6.0390625 6.7695312 H 9.1015625 10.652344 V 7.1679687 7.5664062 H 8.6113281 6.5703125 Z M 7.7216797,7.5517579 6.6914062,7.5507666 6.691064,7.309563 C 6.6908758,7.176901 6.6895024,7.0595703 6.6880121,7.0488281 l -0.00271,-0.019531 -0.00281,0.024987 c -0.00154,0.013743 -0.00281,0.1319558 -0.00281,0.2626954 v 0.237708 L 7.7158203,7.5537183 8.7519531,7.552749 Z m 2.0685379,3.12e-5 c -0.015478,-7.395e-4 -0.041845,-7.439e-4 -0.058594,-1.17e-5 -0.016749,7.34e-4 -0.00408,0.00134 0.028142,0.00134 0.032227,3.9e-6 0.04593,-5.951e-4 0.030452,-0.00133 z"
     id="path47236" />
  <path
     style="fill:#c8ace8;fill-opacity:1;stroke-width:0.00390625"
     d="M 6.5703125,6.4375 V 5.3085937 h 0.4589844 0.4589843 l 3.895e-4,0.5263672 c 2.141e-4,0.289502 0.0018,0.5219727 0.00352,0.5166016 0.00172,-0.00537 0.0033,-0.2422363 0.00352,-0.5263672 l 3.892e-4,-0.5166016 h 0.027344 0.027344 V 6.0390625 6.7695312 H 9.1015625 10.652344 V 7.1679687 7.5664062 H 8.6113281 6.5703125 Z M 7.5595703,7.5517579 6.6914062,7.550764 V 7.3208932 c 0,-0.1264289 -0.00129,-0.243759 -0.00286,-0.2607335 l -0.00286,-0.030863 -0.00258,0.023437 c -0.00142,0.012891 -0.00277,0.1311035 -0.003,0.2626953 l -4.24e-4,0.2392578 0.8740234,-9.679e-4 0.8740235,-9.678e-4 z"
     id="path47275" />
  <path
     style="fill:#c8ace8;fill-opacity:1;stroke-width:0.00390625"
     d="M 6.5703125,6.4375 V 5.3085937 h 0.4589844 0.4589843 v 0.4787462 c 0,0.3181694 0.00131,0.4779364 0.00391,0.476332 0.00257,-0.00159 0.00391,-0.1654052 0.00391,-0.4787462 v -0.476332 h 0.027344 0.027344 V 6.0390625 6.7695312 H 9.1015625 10.652344 V 7.1679687 7.5664062 H 8.6113281 6.5703125 Z M 7.3349609,7.5517579 6.6914062,7.5507581 6.6909211,7.3193243 c -2.669e-4,-0.1272885 -0.0016,-0.2437384 -0.00296,-0.2587774 l -0.00248,-0.027344 -0.0029,0.036733 c -0.00159,0.020203 -0.0029,0.1375371 -0.0029,0.2607422 v 0.2240093 l 0.6494141,-9.649e-4 0.649414,-9.649e-4 z"
     id="path47314" />
  <path
     style="fill:#c8ace8;fill-opacity:1;stroke-width:0.00390625"
     d="M 6.5703125,6.4375 V 5.3085937 h 0.4589844 0.4589843 v 0.4511719 c 0,0.2531279 0.00149,0.4511719 0.0034,0.4511719 0.00187,0 0.00339,-0.00308 0.00337,-0.00684 -1.57e-5,-0.00376 2.144e-4,-0.2067871 5.088e-4,-0.4511719 l 5.354e-4,-0.444336 h 0.027344 0.027344 V 6.0390625 6.7695312 H 9.1015625 10.652344 V 7.1679687 7.5664062 H 8.6113281 6.5703125 Z M 7.1670237,7.551758 6.6836567,7.5507506 6.6826166,7.3232269 6.6815764,7.0957031 6.680632,7.3251953 6.6796875,7.5546875 7.1650391,7.5537264 7.6503906,7.5527653 Z M 6.6904272,7.2099609 c -6.054e-4,-0.060693 -0.0011,-0.011035 -0.0011,0.1103516 0,0.1213867 4.953e-4,0.1710449 0.0011,0.1103516 6.054e-4,-0.060693 6.054e-4,-0.1600098 0,-0.2207032 z m -0.00288,-0.1464752 -0.0019,-0.030283 -0.00123,0.024979 c -0.00108,0.021913 4.283e-4,0.035548 0.00393,0.035577 6.045e-4,3.9e-6 2.437e-4,-0.013618 -8.019e-4,-0.030273 z"
     id="path47353" />
  <path
     style="fill:#c8ace8;fill-opacity:1;stroke-width:0.00390625"
     d="M 6.5703125,6.4375 V 5.3085937 h 0.4589844 0.4589843 l 5.98e-5,0.428711 c 3.91e-5,0.2700377 0.00146,0.4308796 0.00385,0.4345703 0.00246,0.0038 0.00381,-0.1467027 0.00385,-0.4287109 l 5.98e-5,-0.4345704 h 0.027344 0.027344 V 6.0390625 6.7695312 H 9.1015625 10.652344 V 7.1679687 7.5664062 H 8.6113281 6.5703125 Z M 7.0713252,7.551758 6.683666,7.5507434 6.6826164,7.3544732 6.6815667,7.1582031 6.6806271,7.3564453 6.6796875,7.5546875 7.0693359,7.5537301 7.4589844,7.5527727 Z M 6.6904248,7.2551348 c -6.401e-4,-0.038273 -0.00116,-0.00806 -0.00117,0.067131 -1.3e-6,0.075195 5.224e-4,0.1065099 0.00116,0.069588 6.415e-4,-0.036922 6.426e-4,-0.098445 2.5e-6,-0.1367187 z m -0.00399,-0.203377 c -8.427e-4,-0.00806 -0.00153,-0.00146 -0.00153,0.014648 0,0.016113 6.895e-4,0.022705 0.00153,0.014648 8.428e-4,-0.00806 8.428e-4,-0.02124 0,-0.029296 z"
     id="path47392" />
  <path
     style="fill:#c8ace8;fill-opacity:1;stroke-width:0.00390625"
     d="M 6.5703125,6.4375 V 5.3085937 H 7.0292969 7.4882812 V 5.710707 c 0,0.2703432 0.00131,0.4029239 0.004,0.4045872 0.0022,0.00136 0.00375,0.00103 0.00344,-7.46e-4 -3.078e-4,-0.00177 -3.512e-4,-0.1838353 -9.69e-5,-0.4045873 l 4.626e-4,-0.4013672 h 0.027344 0.027344 V 6.0390625 6.7695312 H 9.1015625 10.652344 V 7.1679687 7.5664062 H 8.6113281 6.5703125 Z M 6.9736766,7.5517582 6.6836813,7.5507312 6.6826159,7.3915766 6.6815505,7.2324219 6.680619,7.3935547 6.6796875,7.5546875 6.9716797,7.5537363 7.2636719,7.5527852 Z M 6.6904149,7.2822266 c -6.906e-4,-0.023096 -0.00126,-0.0042 -0.00126,0.041992 0,0.046191 5.651e-4,0.065088 0.00126,0.041992 6.906e-4,-0.023096 6.906e-4,-0.060889 0,-0.083984 z m -0.00402,-0.2265625 c -8.95e-4,-0.00591 -0.00163,-0.00107 -0.00163,0.010742 0,0.011817 7.323e-4,0.01665 0.00163,0.010742 8.95e-4,-0.00591 8.95e-4,-0.015576 0,-0.021484 z"
     id="path47431" />
  <path
     style="fill:#c8ace8;fill-opacity:1;stroke-width:0.00390625"
     d="M 6.5703125,6.4375 V 5.3085937 h 0.4589844 0.4589843 l 4.852e-4,0.3740235 c 2.668e-4,0.2057129 0.00175,0.3863281 0.00329,0.4013672 0.00154,0.015039 0.00308,-0.1532715 0.00342,-0.3740235 L 7.496091,5.3085937 H 7.523435 7.550779 V 6.0390625 6.7695312 H 9.1015625 10.652344 V 7.1679687 7.5664062 H 8.6113281 6.5703125 Z m 0.3252494,1.1142586 -0.21186,-0.00104 -0.00109,-0.1259429 -0.00109,-0.125943 -9.205e-4,0.1279297 -9.205e-4,0.1279297 0.2138672,-9.422e-4 0.2138672,-9.422e-4 z M 6.6903867,7.3017578 c -7.752e-4,-0.012353 -0.00141,-0.00225 -0.00141,0.022461 0,0.024707 6.343e-4,0.034814 0.00141,0.022461 7.752e-4,-0.012354 7.752e-4,-0.032568 0,-0.044922 z m -0.0041,-0.2421875 c -9.825e-4,-0.00376 -0.00179,-6.836e-4 -0.00179,0.00684 0,0.00752 8.039e-4,0.010596 0.00179,0.00684 9.826e-4,-0.00376 9.826e-4,-0.00991 0,-0.013672 z"
     id="path47470" />
  <path
     style="fill:#c8ace8;fill-opacity:1;stroke-width:0.00390625"
     d="M 6.5703125,6.4375 V 5.3085937 h 0.4589844 0.4589843 v 0.3535157 c 0,0.2330729 0.00133,0.3535156 0.00391,0.3535156 0.00258,0 0.00391,-0.1204427 0.00391,-0.3535156 V 5.3085937 h 0.027344 0.027344 V 6.0390625 6.7695312 H 9.1015625 10.652344 V 7.1679687 7.5664062 H 8.6113281 6.5703125 Z M 6.8369822,7.5517592 6.68373,7.5506892 6.68261,7.4540552 6.68149,7.3574212 6.6805848,7.4560542 6.6796797,7.5546872 6.8349531,7.5537573 6.9902266,7.5528274 Z M 6.690087,7.3193359 c -0.00108,-0.00269 -0.00197,-4.882e-4 -0.00197,0.00488 0,0.00537 8.866e-4,0.00757 0.00197,0.00488 0.00108,-0.00269 0.00108,-0.00708 0,-0.00977 z M 6.686177,7.0615234 c -0.00108,-0.00269 -0.00197,-4.882e-4 -0.00197,0.00488 0,0.00537 8.866e-4,0.00757 0.00197,0.00488 0.00108,-0.00269 0.00108,-0.00708 0,-0.00977 z"
     id="path47509" />
  <path
     style="fill:#c8ace8;fill-opacity:1;stroke-width:0.00390625"
     d="M 6.5703125,6.4375 V 5.3085937 h 0.4589844 0.4589843 l 5.98e-5,0.3271485 c 3.91e-5,0.204468 0.00148,0.3293457 0.00385,0.3330078 0.00246,0.00381 0.00381,-0.1107095 0.00385,-0.3271484 l 5.98e-5,-0.3330079 h 0.027344 0.027344 V 6.0390625 6.7695312 H 9.1015625 10.652344 V 7.1679687 7.5664062 H 8.6113281 6.5703125 Z m 0.2315295,1.1142601 -0.11808,-0.00109 -0.00115,-0.075138 -0.00115,-0.075138 -8.871e-4,0.077149 -8.871e-4,0.077148 0.1201172,-9.171e-4 0.1201172,-9.171e-4 z"
     id="path47548" />
  <path
     style="fill:#c8ace8;fill-opacity:1;stroke-width:0.00390625"
     d="M 6.5703125,6.4394531 V 5.3085937 h 0.4589844 0.4589843 l 4.626e-4,0.3095704 c 2.543e-4,0.1702636 2.11e-4,0.3110193 -9.68e-5,0.3127903 -3.075e-4,0.00177 0.00124,0.00211 0.00344,7.46e-4 0.00268,-0.00166 0.004,-0.1051246 0.004,-0.3127903 V 5.3085937 H 7.523431 7.550775 V 6.0390625 6.7695312 H 9.1015625 10.652344 V 7.1699219 7.5703125 H 8.6113281 6.5703125 Z m 0.1122818,1.0265458 c -7.34e-4,-0.016749 -0.00134,-0.00408 -0.00134,0.028142 -5.5e-6,0.032227 5.95e-4,0.04593 0.00133,0.030452 7.395e-4,-0.015478 7.44e-4,-0.041845 10e-6,-0.058594 z"
     id="path47587" />
  <path
     style="fill:#c8ace8;fill-opacity:1;stroke-width:0.00390625"
     d="M 6.5703125,6.4394531 V 5.3085937 h 0.4589844 0.4589843 l 5.22e-4,0.3095704 c 2.871e-4,0.1702636 0.00189,0.3007812 0.00356,0.290039 0.00167,-0.010742 0.0032,-0.1500488 0.00338,-0.3095703 l 3.422e-4,-0.2900391 h 0.027344 0.027344 V 6.0390625 6.7695312 H 9.1015625 10.652344 V 7.1699219 7.5703125 H 8.6113281 6.5703125 Z m 0.1122294,1.0399212 c -8.192e-4,-0.00907 -0.00148,-6.634e-4 -0.00147,0.018673 1.18e-5,0.019336 6.822e-4,0.026754 0.00149,0.016484 8.073e-4,-0.01027 7.976e-4,-0.02609 -2.15e-5,-0.035156 z"
     id="path47626" />
  <path
     style="fill:#c8ace8;fill-opacity:1;stroke-width:0.00390625"
     d="M 6.5703125,5.1113038 V 2.6522951 l 0.4902344,7.89e-5 0.4902343,7.88e-5 V 2.9785701 3.3046875 H 9.1015625 10.652344 V 3.7128906 4.1210937 H 9.1015625 7.5507812 V 5.4453125 6.7695312 H 9.1015625 10.652344 V 7.1699219 7.5703125 H 8.6113281 6.5703125 Z M 6.6824443,7.4912109 C 6.6815132,7.486377 6.6807514,7.490332 6.6807514,7.5 c 0,0.00967 7.618e-4,0.013623 0.00169,0.00879 9.31e-4,-0.00483 9.31e-4,-0.012744 0,-0.017578 z M 7.4948631,5.4316406 c -3.974e-4,-0.2298828 -0.00163,-0.4821289 -0.00275,-0.5605469 -0.00111,-0.078418 -0.00231,0.1131836 -0.00266,0.4257813 -3.566e-4,0.3223973 8.331e-4,0.5649784 0.00275,0.5605469 0.00186,-0.0043 0.00305,-0.1958985 0.00266,-0.4257813 z"
     id="path47665" />
  <path
     style="fill:#c8ace8;fill-opacity:1;stroke-width:0.00390625"
     d="M 6.5703125,5.1113281 V 2.6523438 H 7.0605469 7.5507812 V 2.9785156 3.3046875 H 9.1015625 10.652344 V 3.7128906 4.1210937 H 9.1015625 7.5507812 V 5.4453125 6.7695312 H 9.1015625 10.652344 V 7.1699219 7.5703125 H 8.6113281 6.5703125 Z m 0.111962,2.3837891 c -0.00108,-0.00269 -0.00197,-4.883e-4 -0.00197,0.00488 0,0.00537 8.866e-4,0.00757 0.00197,0.00488 0.00108,-0.00269 0.00108,-0.00708 0,-0.00977 z M 7.4950837,5.4980469 c -4.72e-5,-0.156836 -0.00126,-0.3660157 -0.00269,-0.4648438 -0.0019,-0.1310704 -0.00268,-0.050747 -0.0029,0.296875 -1.621e-4,0.2621094 0.00105,0.4712891 0.00269,0.4648438 0.00164,-0.00645 0.00294,-0.1400391 0.0029,-0.296875 z"
     id="path47704" />
  <path
     style="fill:#c8ace8;fill-opacity:1;stroke-width:0.00390625"
     d="M 6.5703125,5.1113281 V 2.6523438 H 7.0605469 7.5507812 V 2.9785156 3.3046875 H 9.1015625 10.652344 V 3.7128906 4.1210937 H 9.1015625 7.5507812 V 5.4453125 6.7695312 H 9.1015625 10.652344 V 7.1699219 7.5703125 H 8.6113281 6.5703125 Z M 7.4943973,5.349872 c -0.00128,-0.2018087 -0.00319,-0.3677755 -0.00423,-0.3688151 -0.00104,-0.00104 -0.00178,0.1684711 -0.00164,0.3766905 1.707e-4,0.2609728 0.00148,0.375547 0.00423,0.3688151 0.00266,-0.00653 0.0032,-0.1313043 0.00164,-0.3766905 z"
     id="path47743" />
  <path
     style="fill:#c8ace8;fill-opacity:1;stroke-width:0.00390625"
     d="M 6.5703125,5.1113281 V 2.6523438 H 7.0605469 7.5507812 V 2.9785156 3.3046875 H 9.1015625 10.652344 V 3.7128906 4.1210937 H 9.1015625 7.5507812 V 5.4453125 6.7695312 H 9.1015625 10.652344 V 7.1699219 7.5703125 H 8.6113281 6.5703125 Z m 0.9229102,0.21875 c -0.00109,-0.1761718 -0.00264,-0.3210449 -0.00346,-0.3219401 -8.161e-4,-8.951e-4 -0.00123,0.1502767 -9.295e-4,0.3359375 3.047e-4,0.1856608 0.00186,0.3305339 0.00346,0.3219401 0.0016,-0.00859 0.00202,-0.1597656 9.295e-4,-0.3359375 z"
     id="path47782" />
  <path
     style="fill:#c8ace8;fill-opacity:1;stroke-width:0.00390625"
     d="M 6.5703125,5.1113281 V 2.6523438 H 7.0605469 7.5507812 V 2.9785156 3.3046875 H 9.1015625 10.652344 V 3.7128906 4.1210937 H 9.1015625 7.5507812 V 5.4453125 6.7695312 H 9.1015625 10.652344 V 7.1699219 7.5703125 H 8.6113281 6.5703125 Z m 0.920897,0.081055 c -5.909e-4,-0.078955 -0.00107,-0.014355 -0.00107,0.1435547 0,0.1579102 4.835e-4,0.2225098 0.00107,0.1435547 5.908e-4,-0.078955 5.908e-4,-0.2081543 0,-0.2871094 z"
     id="path47821" />
  <path
     style="fill:#c8ace8;fill-opacity:1;stroke-width:0.00390625"
     d="M 6.5703125,2.203125 V 0.10546875 h 2.0410156 c 1.358073,0 2.0410159,0.001307 2.0410159,0.003906 0,0.002599 -0.6647138,0.003906 -1.9863284,0.003906 H 6.6796875 V 1.1054687 c 0,0.8793403 6.664e-4,0.9921876 0.00586,0.9921876 0.00519,0 0.00586,-0.1121962 0.00586,-0.9863282 V 0.125 H 8.671875 10.652344 V 0.51367187 0.90234375 H 9.1015625 7.5507812 V 2.1035156 3.3046875 H 9.1015625 10.652344 V 3.7128906 4.1210937 H 9.1015625 7.5507812 v 0.089844 0.089844 H 7.0605469 6.5703125 Z M 7.4912108,1.2705078 c -5.549e-4,-0.2529785 -0.00101,-0.045996 -0.00101,0.4599609 0,0.5059571 4.54e-4,0.7129395 0.00101,0.459961 5.549e-4,-0.2529785 5.549e-4,-0.6669434 0,-0.9199219 z"
     id="path47860" />
  <path
     style="fill:#c8ace8;fill-opacity:1;stroke-width:0.00390625"
     d="M 6.5703125,2.203125 V 0.10546875 h 2.0410156 c 1.358073,0 2.0410159,0.001307 2.0410159,0.003906 0,0.002599 -0.6647138,0.003906 -1.9863284,0.003906 H 6.6796875 L 6.679962,1.0986328 c 1.51e-4,0.5419434 0.00161,0.9887731 0.00325,0.9929549 0.00276,0.00704 0.00316,0.0069 0.00553,-0.00195 0.00141,-0.00526 0.00258,-0.4494491 0.00261,-0.9870955 L 6.6914062,0.125 H 8.671875 10.652344 V 0.51367187 0.90234375 H 9.1015625 7.5507812 V 2.1035156 3.3046875 H 9.1015625 10.652344 V 3.7128906 4.1210937 H 9.1015625 7.5507812 v 0.089844 0.089844 H 7.0605469 6.5703125 Z m 0.9208981,-0.75653 c -5.654e-4,-0.1564671 -0.00103,-0.029603 -0.00103,0.2819206 -1e-7,0.3115235 4.625e-4,0.439542 0.00103,0.2844857 5.656e-4,-0.1550563 5.657e-4,-0.4099392 0,-0.5664063 z"
     id="path47899" />
  <path
     style="fill:#c8ace8;fill-opacity:1;stroke-width:0.00390625"
     d="M 6.5703125,1.890625 V 0.10546875 h 2.0410156 c 1.358073,0 2.0410159,0.001307 2.0410159,0.003906 0,0.002599 -0.6647138,0.003906 -1.9863284,0.003906 H 6.6796875 V 1.0932617 c 0,0.5389893 0.00117,0.9858308 0.0026,0.9929812 0.0022,0.011009 0.00306,0.011832 0.00558,0.00537 0.00164,-0.0042 0.00311,-0.4484011 0.00326,-0.9871218 L 6.6914062,0.125 H 8.671875 10.652344 V 0.51367187 0.90234375 H 9.1015625 7.5507812 V 2.1035156 3.3046875 H 9.1015625 10.652344 V 3.4902344 3.6757813 H 8.6113281 6.5703125 Z M 7.4912096,1.5553701 c -5.827e-4,-0.093832 -0.00106,-0.015917 -0.00106,0.1731455 3e-7,0.1890625 4.771e-4,0.2658346 0.00106,0.1706045 5.825e-4,-0.09523 5.823e-4,-0.2499175 0,-0.34375 z"
     id="path47938" />
  <path
     style="fill:#c8ace8;fill-opacity:1;stroke-width:0.00390625"
     d="M 6.5703125,1.890625 V 0.10546875 h 2.0410156 c 1.358073,0 2.0410159,0.001307 2.0410159,0.003906 0,0.002599 -0.6647138,0.003906 -1.9863284,0.003906 H 6.6796875 l 2.251e-4,0.97753905 c 1.238e-4,0.5376465 0.00153,0.9845703 0.00312,0.9931641 l 0.00289,0.015625 0.00274,-0.0191 c 0.00151,-0.010505 0.00274,-0.4547921 0.00274,-0.9873047 V 0.125 H 8.671875 10.652344 V 0.51367187 0.90234375 H 9.1015625 7.5507812 V 2.1035156 3.3046875 H 9.1015625 10.652344 V 3.4902344 3.6757813 H 8.6113281 6.5703125 Z M 7.4912079,1.6418683 c -6.202e-4,-0.049024 -0.00113,-0.010032 -0.00113,0.086647 -8e-7,0.09668 5.066e-4,0.13679 0.00113,0.089134 6.211e-4,-0.047656 6.218e-4,-0.1267576 1.6e-6,-0.1757812 z"
     id="path47977" />
  <path
     style="fill:#c8ace8;fill-opacity:1;stroke-width:0.00390625"
     d="M 6.5703125,1.890625 V 0.10546875 h 2.0410156 c 1.358073,0 2.0410159,0.001307 2.0410159,0.003906 0,0.002599 -0.6647138,0.003906 -1.9863284,0.003906 H 6.6796875 l 2.03e-5,0.95214845 c 1.09e-5,0.5236816 0.0013,0.9697266 0.00286,0.9912109 l 0.00284,0.039063 0.00258,-0.023437 c 0.00142,-0.012891 0.00277,-0.4562988 0.003,-0.9853515 L 6.6914062,0.125 H 8.671875 10.652344 V 0.51367187 0.90234375 H 9.1015625 7.5507812 V 2.1035156 3.3046875 H 9.1015625 10.652344 V 3.4902344 3.6757813 H 8.6113281 6.5703125 Z M 7.4909496,1.7570801 c -0.00125,-0.00312 -0.00217,-0.00219 -0.00236,0.00236 -1.695e-4,0.00412 7.536e-4,0.00643 0.00205,0.00513 0.0013,-0.0013 0.00144,-0.00467 3.082e-4,-0.00749 z m 1.575e-4,-0.043213 c -8.666e-4,-0.00698 -0.00158,-0.00127 -0.00158,0.012695 0,0.013965 7.089e-4,0.019678 0.00158,0.012695 8.665e-4,-0.00698 8.665e-4,-0.018408 0,-0.025391 z"
     id="path48016" />
  <path
     style="fill:#c8ace8;fill-opacity:1;stroke-width:0.00390625"
     d="M 6.5703125,1.890625 V 0.10546875 h 2.0410156 c 1.358073,0 2.0410159,0.001307 2.0410159,0.003906 0,0.002599 -0.6647138,0.003906 -1.9863284,0.003906 H 6.6796875 l 4.97e-4,0.94824215 c 2.733e-4,0.5215332 0.00159,0.9675782 0.00293,0.991211 l 0.00243,0.042969 0.00292,-0.056641 c 0.0016,-0.031152 0.00292,-0.4745605 0.00293,-0.9853516 L 6.6914062,0.125 H 8.671875 10.652344 V 0.51367187 0.90234375 H 9.1015625 7.5507812 V 2.1035156 3.3046875 H 9.1015625 10.652344 V 3.4902344 3.6757813 H 8.6113281 6.5703125 Z"
     id="path48055" />
  <path
     style="fill:#c8ace8;fill-opacity:1;stroke-width:0.00390625"
     d="M 6.6845586,1.0888672 6.6835937,0.1171875 h 1.9843751 c 1.3190167,0 1.9843752,0.001308 1.9843752,0.003902 0,0.002593 -0.6650342,0.004231 -1.9814456,0.004883 L 6.6894531,0.12695312 6.6874883,1.09375 6.6855235,2.0605469 Z"
     id="path48094" />
  <path
     style="fill:#c8ace8;fill-opacity:1;stroke-width:0.00390625"
     d="M 6.5703125,1.890625 V 0.10546875 h 2.0410156 c 1.358073,0 2.0410159,0.001307 2.0410159,0.003906 0,0.002599 -0.6647138,0.003906 -1.9863284,0.003906 H 6.6796875 l 8.6e-6,0.89160155 c 4.7e-6,0.4903809 0.00132,0.9355469 0.00293,0.9892578 l 0.00292,0.097656 0.00244,-0.056641 C 6.6912076,1.9603291 6.6907314,0.11445674 6.6875,0.15234375 l -0.0025,0.0292969 -7.037e-4,-0.0326976 -7.038e-4,-0.0326976 1.4697266,0.002426 c 0.8083496,0.001335 1.7013184,0.003514 1.9843749,0.004844 l 0.514649,0.002418 v 0.38820503 0.388205 H 9.1015625 7.5507812 V 2.1035156 3.3046875 H 9.1015625 10.652344 V 3.4902344 3.6757813 H 8.6113281 6.5703125 Z"
     id="path48133" />
  <path
     style="fill:#c8ace8;fill-opacity:1;stroke-width:0.00390625"
     d="M 6.5703125,1.890625 V 0.10546875 h 2.0410156 c 1.358073,0 2.0410159,0.001307 2.0410159,0.003906 0,0.002599 -0.6647138,0.003906 -1.9863284,0.003906 H 6.6796875 v 0.56510418 c 0,0.31080727 9.143e-4,0.56418987 0.00203,0.56307237 0.00112,-0.00112 0.00206,-0.25474733 0.0021,-0.56362194 l 6.84e-5,-0.56159017 1.4695795,0.002426 c 0.8082687,0.001334 1.7011713,0.003514 1.9842276,0.004844 l 0.514649,0.002418 v 0.38820503 0.388205 H 9.1015625 7.5507812 V 2.1035156 3.3046875 H 9.1015625 10.652344 V 3.4902344 3.6757813 H 8.6113281 6.5703125 Z M 6.6866392,1.99997 C 6.6864909,1.953795 6.6852692,1.7727539 6.6839292,1.5976562 L 6.6814892,1.2792969 6.681382,1.5957031 c -1.071e-4,0.3160081 0.00137,0.4923879 0.00409,0.4896641 7.935e-4,-7.935e-4 0.00132,-0.039222 0.00117,-0.085397 z m 0.00362,-1.84074477 c -9.343e-4,-0.004859 -0.00173,-0.001803 -0.00178,0.00679 -4.34e-5,0.008594 7.211e-4,0.0125693 0.0017,0.008835 9.777e-4,-0.003735 0.00101,-0.010766 7.88e-5,-0.015625 z"
     id="path48172" />
  <path
     style="fill:#c8ace8;fill-opacity:1;stroke-width:0.00390625"
     d="M 6.5703125,1.890625 V 0.10546875 h 2.0410156 c 1.358073,0 2.0410159,0.001307 2.0410159,0.003906 0,0.002599 -0.6647138,0.003906 -1.9863284,0.003906 H 6.6796875 l 9.632e-4,0.56347656 9.632e-4,0.56347659 10e-4,-0.56210948 0.001,-0.56210944 1.6044789,0.002405 c 0.8824634,0.001323 1.6176625,0.00311 1.6337758,0.003971 0.016113,8.6116e-4 0.1870614,0.0018 0.3798834,0.002087 L 10.652344,0.125 V 0.51367187 0.90234375 H 9.1015625 7.5507812 V 2.1035156 3.3046875 H 9.1015625 10.652344 V 3.4902344 3.6757813 H 8.6113281 6.5703125 Z m 0.1138272,-0.4042969 -0.00324,-0.1914062 3.001e-4,0.2792968 c 1.651e-4,0.1536133 0.00121,0.3311524 0.00232,0.3945313 0.00177,0.1009076 0.00214,0.08998 0.00294,-0.087891 5.044e-4,-0.1117188 -5.415e-4,-0.2892578 -0.00232,-0.3945309 z m 0.00595,-1.32324216 c -0.00108,-0.002686 -0.00197,-4.8828e-4 -0.00197,0.004883 0,0.005371 8.866e-4,0.007568 0.00197,0.004883 0.00108,-0.002686 0.00108,-0.00708 0,-0.009766 z"
     id="path48211" />
  <path
     style="fill:#c8ace8;fill-opacity:1;stroke-width:0.00390625"
     d="M 6.5703125,1.890625 V 0.10546875 h 2.0410156 c 1.358073,0 2.0410159,0.001307 2.0410159,0.003906 0,0.002599 -0.6647138,0.003906 -1.9863284,0.003906 H 6.6796875 l 9.624e-4,0.53027344 9.624e-4,0.53027341 10e-4,-0.52887931 0.001,-0.52887935 1.5634625,0.002519 c 0.8599043,0.001385 1.7528668,0.003643 1.9843602,0.005017 l 0.420899,0.002498 v 0.3881202 0.3881202 H 9.1015625 7.5507812 V 2.1035156 3.3046875 H 9.1015625 10.652344 V 3.4902344 3.6757813 H 8.6113281 6.5703125 Z m 0.113798,-0.3691406 -0.00328,-0.1640625 2.462e-4,0.2148437 c 1.353e-4,0.1181641 0.0012,0.2702149 0.00236,0.3378906 l 0.00211,0.1230469 9.234e-4,-0.1738281 C 6.686978,1.763769 6.6859161,1.6117188 6.6841105,1.5214844 Z"
     id="path48250" />
  <path
     style="fill:#c8ace8;fill-opacity:1;stroke-width:0.00390625"
     d="M 6.5703125,1.890625 V 0.10546875 h 2.0410156 c 1.358073,0 2.0410159,0.001307 2.0410159,0.003906 0,0.002599 -0.6647138,0.003906 -1.9863284,0.003906 H 6.6796875 l 9.601e-4,0.45410156 9.6e-4,0.45410159 0.00101,-0.45273331 0.00101,-0.45273331 1.6025226,0.00254 c 0.8813875,0.001397 1.7743488,0.003679 1.9843588,0.005071 l 0.381836,0.002531 V 0.51425141 0.90234375 H 9.1015625 7.5507812 V 2.1035156 3.3046875 H 9.1015625 10.652344 V 3.4902344 3.6757813 H 8.6113281 6.5703125 Z M 6.6838498,1.5605469 c -0.00335,-0.1210449 -0.00347,-0.1162805 -0.00194,0.078125 8.966e-4,0.1138672 0.00206,0.246582 0.00259,0.2949218 5.279e-4,0.04834 0.0014,0.013184 0.00194,-0.078125 5.385e-4,-0.091309 -6.27e-4,-0.2240234 -0.00259,-0.2949218 z"
     id="path48289" />
  <path
     style="fill:#c8ace8;fill-opacity:1;stroke-width:0.00390625"
     d="M 6.5703125,1.890625 V 0.10546875 h 2.0410156 c 1.358073,0 2.0410159,0.001307 2.0410159,0.003906 0,0.002599 -0.6647138,0.003906 -1.9863284,0.003906 H 6.6796875 l 9.562e-4,0.36621094 9.562e-4,0.36621094 0.00102,-0.36485561 0.00102,-0.36485561 1.6259563,0.002557 c 0.894276,0.001406 1.7872358,0.003699 1.9843548,0.005094 l 0.358399,0.002537 V 0.51426203 0.90234375 H 9.1015625 7.5507812 V 2.1035156 3.3046875 H 9.1015625 10.652344 V 3.4902344 3.6757813 H 8.6113281 6.5703125 Z M 6.6865179,1.7136056 c -6.281e-4,-0.043362 -0.00114,-0.00677 -0.00114,0.081316 1e-6,0.088086 5.15e-4,0.1235639 0.00114,0.07884 6.272e-4,-0.044724 6.263e-4,-0.1167942 -1.9e-6,-0.1601562 z m -0.00395,-0.1675762 c -7.916e-4,-0.011351 -0.00145,-0.00306 -0.00146,0.018424 -1.02e-5,0.021484 6.375e-4,0.030772 0.00144,0.020639 8.017e-4,-0.010133 8.101e-4,-0.027711 1.84e-5,-0.039063 z"
     id="path48328" />
  <path
     style="fill:#c8ace8;fill-opacity:1;stroke-width:0.00390625"
     d="M 6.5703125,1.890625 V 0.10546875 h 2.0410156 c 1.358073,0 2.0410159,0.001307 2.0410159,0.003906 0,0.002599 -0.6647138,0.003906 -1.9863284,0.003906 H 6.6796875 l 9.501e-4,0.28027344 9.501e-4,0.28027343 0.00103,-0.27893662 0.00103,-0.27893663 1.6669659,0.002576 c 0.9168313,0.001417 1.8097874,0.003726 1.9843494,0.00513 l 0.317382,0.002554 V 0.51427961 0.90234375 H 9.1015625 7.5507812 V 2.1035156 3.3046875 H 9.1015625 10.652344 V 3.4902344 3.6757813 H 8.6113281 6.5703125 Z M 6.6865086,1.7626953 c -6.906e-4,-0.023096 -0.00126,-0.0042 -0.00126,0.041992 0,0.046191 5.65e-4,0.065088 0.00126,0.041992 6.907e-4,-0.023096 6.907e-4,-0.060889 0,-0.083984 z"
     id="path48367" />
  <path
     style="fill:#c8ace8;fill-opacity:1;stroke-width:0.00390625"
     d="M 6.5703125,1.890625 V 0.10546875 h 2.0410156 c 1.358073,0 2.0410159,0.001307 2.0410159,0.003906 0,0.002599 -0.6647138,0.003906 -1.9863284,0.003906 H 6.6796875 l 9.425e-4,0.21582031 9.425e-4,0.21582031 0.00104,-0.21449063 0.00104,-0.21449063 1.6864897,0.00258 c 0.9275694,0.001419 1.8205228,0.003734 1.9843408,0.005146 l 0.297852,0.002566 V 0.5142877 0.90234375 H 9.1015625 7.5507812 V 2.1035156 3.3046875 H 9.1015625 10.652344 V 3.4902344 3.6757813 H 8.6113281 6.5703125 Z m 0.1160791,-0.09668 c -8.95e-4,-0.00591 -0.00163,-0.00107 -0.00163,0.010742 0,0.011816 7.323e-4,0.01665 0.00163,0.010742 8.95e-4,-0.00591 8.95e-4,-0.015576 0,-0.021484 z"
     id="path48406" />
  <path
     style="fill:#c8ace8;fill-opacity:1;stroke-width:0.00390625"
     d="M 6.5703125,1.890625 V 0.10546875 h 2.0410156 c 1.358073,0 2.0410159,0.001307 2.0410159,0.003906 0,0.002599 -0.6647138,0.003906 -1.9863284,0.003906 H 6.6796875 l 9.32e-4,0.16308594 9.321e-4,0.16308594 0.00106,-0.16176439 0.00106,-0.16176438 1.7157764,0.002581 c 0.9436771,0.00142 1.836626,0.003743 1.984331,0.005163 l 0.268555,0.002581 V 0.51429691 0.90234375 H 9.1015625 7.5507812 V 2.1035156 3.3046875 H 9.1015625 10.652344 V 3.4902344 3.6757813 H 8.6113281 6.5703125 Z"
     id="path48445" />
  <path
     style="fill:#c8ace8;fill-opacity:1;stroke-width:0.00390625"
     d="M 6.5703125,1.890625 V 0.10546875 h 2.0410156 c 1.358073,0 2.0410159,0.001307 2.0410159,0.003906 0,0.002599 -0.6647138,0.003906 -1.9863284,0.003906 H 6.6796875 l 9.197e-4,0.12597656 9.197e-4,0.12597657 0.00109,-0.12465663 0.00109,-0.12465662 1.7489677,0.002594 c 0.9619323,0.001427 1.8548764,0.003749 1.9843194,0.005162 l 0.235352,0.002568 v 0.3880494 0.38804938 H 9.1015625 7.5507812 V 2.1035156 3.3046875 H 9.1015625 10.652344 V 3.4902344 3.6757813 H 8.6113281 6.5703125 Z"
     id="path48484" />
  <path
     style="fill:#c8ace8;fill-opacity:1;stroke-width:0.00390625"
     d="M 6.5703125,1.890625 V 0.10546875 h 2.0410156 c 1.358073,0 2.0410159,0.001307 2.0410159,0.003906 0,0.002599 -0.6603735,0.003906 -1.9733076,0.003906 -1.0853189,0 -1.9725748,6.4075e-4 -1.9716796,0.001424 8.952e-4,7.8314e-4 0.7908854,0.002544 1.7555338,0.003912 0.9646485,0.001369 1.8519044,0.003643 1.9716794,0.005054 l 0.217774,0.002566 v 0.38805321 0.3880532 H 9.1015625 7.5507812 V 2.1035156 3.3046875 H 9.1015625 10.652344 V 3.4902344 3.6757813 H 8.6113281 6.5703125 Z M 6.6826063,0.16113281 c -6.715e-4,-0.0273926 -0.00122,-0.00498 -0.00122,0.0498047 0,0.0547852 5.494e-4,0.0771973 0.00122,0.0498047 6.715e-4,-0.0273926 6.715e-4,-0.0722168 0,-0.0996094 z"
     id="path48523" />
  <path
     style="fill:#c8ace8;fill-opacity:1;stroke-width:0.00390625"
     d="M 6.5703125,1.890625 V 0.10546875 h 2.0410156 c 1.358073,0 2.0410159,0.001307 2.0410159,0.003906 0,0.002598 -0.635539,0.004131 -1.8974612,0.004577 l -1.8974609,6.7105e-4 1.6035156,0.002802 c 0.8819336,0.001541 1.7357915,0.004088 1.8974605,0.00566 l 0.293946,0.002859 V 0.51414406 0.90234375 H 9.1015625 7.5507812 V 2.1035156 3.3046875 H 9.1015625 10.652344 V 3.4902344 3.6757813 H 8.6113281 6.5703125 Z M 6.6825914,0.17497559 c -7.434e-4,-0.0156702 -0.00136,-0.003882 -0.00136,0.0261963 -6.2e-6,0.0300781 6.021e-4,0.0428992 0.00135,0.0284912 7.494e-4,-0.014408 7.544e-4,-0.0390173 10e-6,-0.0546875 z"
     id="path48562" />
  <path
     style="fill:#c8ace8;fill-opacity:1;stroke-width:0.00390625"
     d="M 6.5703125,1.890625 V 0.10546875 h 2.0410156 c 1.358073,0 2.0410159,0.001307 2.0410159,0.003906 0,0.002597 -0.582158,0.004134 -1.7373049,0.004585 l -1.7373047,6.7853e-4 1.4628906,0.00276 c 0.8045898,0.001518 1.586377,0.004061 1.737305,0.005652 l 0.274414,0.002892 V 0.51414293 0.90234375 H 9.1015625 7.5507812 V 2.1035156 3.3046875 H 9.1015625 10.652344 V 3.4902344 3.6757813 H 8.6113281 6.5703125 Z M 6.6825383,0.18465744 c -8.456e-4,-0.008105 -0.00155,-0.002431 -0.00157,0.0126082 -1.72e-5,0.0150391 6.745e-4,0.0216701 0.00154,0.0147356 8.629e-4,-0.006935 8.771e-4,-0.0192392 3.16e-5,-0.0273438 z"
     id="path48601" />
  <path
     style="fill:#c8ace8;fill-opacity:1;stroke-width:0.00390625"
     d="M 6.8320312,1.890625 V 0.10546875 h 2.2128907 2.2128911 v 0.3984375 0.3984375 H 9.4042969 7.5507812 V 2.1035156 3.3046875 H 9.1699219 10.789063 V 3.4902344 3.6757813 H 8.8105469 6.8320312 Z M 11.214844,0.12109375 c 0,-0.007803 -0.0024,-0.007812 -1.8916018,-0.007138 l -1.8916016,6.7494e-4 1.359375,0.003224 c 1.1631304,0.002759 2.4195794,0.008143 2.4228514,0.0103826 5.37e-4,3.676e-4 9.77e-4,-0.002847 9.77e-4,-0.007144 z"
     id="path48640" />
  <path
     style="fill:#c8ace8;fill-opacity:1;stroke-width:0.00390625"
     d="M 6.8320312,1.890625 V 0.10546875 h 2.2128907 2.2128911 v 0.3984375 0.3984375 H 9.4042969 7.5507812 V 2.1035156 3.3046875 H 9.1699219 10.789063 V 3.4902344 3.6757813 H 8.8105469 6.8320312 Z M 11.212972,0.11791992 c -0.0015,-0.001477 -0.794873,-0.002829 -1.7631022,-0.003004 l -1.7604167,-3.189e-4 1.2324219,0.003241 c 0.677832,0.001782 1.470605,0.004563 1.761719,0.006178 0.291113,0.001616 0.529919,0.001509 0.53068,-2.3624e-4 7.61e-4,-0.001746 1.76e-4,-0.004382 -0.0013,-0.005859 z"
     id="path48679" />
  <path
     style="fill:#c8ace8;fill-opacity:1;stroke-width:0.00390625"
     d="M 6.8320312,1.890625 V 0.10546875 h 2.2128907 2.2128911 v 0.3984375 0.3984375 H 9.4042969 7.5507812 V 2.1035156 3.3046875 H 9.1699219 10.789063 V 3.4902344 3.6757813 H 8.8105469 6.8320312 Z M 11.214844,0.12171583 c 0,-0.001806 -0.03823,-0.004439 -0.08496,-0.00585 -0.08969,-0.002708 -3.0893825,-0.003703 -3.0865887,-0.001024 8.952e-4,8.5858e-4 0.5409516,0.002438 1.2001255,0.003511 0.6591738,0.001072 1.1995542,0.003007 1.2008462,0.004298 0.0037,0.00368 0.770578,0.002749 0.770578,-9.3571e-4 z"
     id="path48718" />
  <path
     style="fill:#c8ace8;fill-opacity:1;stroke-width:0.00390625"
     d="M 6.8320312,1.890625 V 0.10546875 h 2.2128907 2.2128911 v 0.3984375 0.3984375 H 9.4042969 7.5507812 V 2.1035156 3.3046875 H 9.1699219 10.789063 V 3.4902344 3.6757813 H 8.8105469 6.8320312 Z M 11.211524,0.12011719 c -0.0039,-0.003888 -0.313037,-0.004968 -1.5173829,-0.0053 l -1.5125005,-4.1717e-4 1.0429688,0.003217 c 0.5736328,0.00177 1.0851566,0.003749 1.1367186,0.004398 0.05156,6.4904e-4 0.265049,0.001586 0.474414,0.002082 0.304531,7.2193e-4 0.379688,-7.416e-5 0.375782,-0.00398 z"
     id="path48757" />
  <path
     style="fill:#c8ace8;fill-opacity:1;stroke-width:0.00390625"
     d="M 6.8320312,1.890625 V 0.10546875 h 2.2128907 2.2128911 v 0.3984375 0.3984375 H 9.4042969 7.5507812 V 2.1035156 3.3046875 H 9.1699219 10.789063 V 3.4902344 3.6757813 H 8.8105469 6.8320312 Z M 11.210938,0.12173555 c 0,-0.005945 -0.53135,-0.008456 -1.6503911,-0.0078 L 8.4550781,0.11458347 9.3125,0.11772537 c 0.471582,0.001728 0.927734,0.003653 1.013672,0.004277 0.391329,0.002844 0.884766,0.002695 0.884766,-2.6682e-4 z"
     id="path48796" />
  <path
     style="fill:#c8ace8;fill-opacity:1;stroke-width:0.00390625"
     d="M 6.8320312,1.890625 V 0.10546875 h 2.2128907 2.2128911 v 0.3984375 0.3984375 H 9.4042969 7.5507812 V 2.1035156 3.3046875 H 9.1699219 10.789063 V 3.4902344 3.6757813 H 8.8105469 6.8320312 Z M 10.622377,0.11804479 c 0.0616,6.0271e-4 0.112002,-2.2252e-4 0.112,-0.001834 -1e-6,-0.001611 -0.456594,-0.002637 -1.0146504,-0.00228 l -1.0146485,6.4995e-4 0.7460938,0.003146 c 0.4103515,0.00173 0.8155271,0.003635 0.9003911,0.004233 0.08486,5.9795e-4 0.155312,-2.8485e-4 0.156554,-0.001962 0.0012,-0.001677 0.05266,-0.002556 0.11426,-0.001953 z"
     id="path48835" />
  <path
     style="fill:#c8ace8;fill-opacity:1;stroke-width:0.00390625"
     d="M 6.8320312,1.8886719 V 0.1015625 H 9.0449219 11.257813 V 0.50195312 0.90234375 H 9.4042969 7.5507812 V 2.1035156 3.3046875 H 9.1699219 10.789063 V 3.4902344 3.6757813 H 8.8105469 6.8320312 Z M 9.8261719,0.1171875 C 9.8245819,0.1146115 9.6731906,0.1136055 9.3816054,0.1142325 l -0.4421523,9.5152e-4 0.4433594,0.002003 c 0.2438477,0.001102 0.4439026,0.002431 0.4445665,0.002955 6.639e-4,5.2334e-4 1.207e-4,-8.0629e-4 -0.00121,-0.002955 z m 0.8916011,0.001214 c -0.0038,-9.8253e-4 -0.0099,-9.8253e-4 -0.01367,0 -0.0038,9.8253e-4 -6.84e-4,0.001786 0.0068,0.001786 0.0075,0 0.0106,-8.0389e-4 0.0068,-0.001786 z"
     id="path48874" />
  <path
     style="fill:#0000ff;fill-opacity:1;stroke-width:0.153808"
     d="m 50.253762,50.582208 c -1.605807,-0.237895 -3.252898,-1.522562 -4.05969,-3.166401 -0.414203,-0.843937 -0.436237,-0.994353 -0.43441,-2.965434 0.0019,-1.999296 0.02347,-2.138859 0.582052,-3.758351 0.835646,-2.42277 1.942809,-4.536274 5.927202,-11.314664 0.936645,-1.593454 1.292838,-2.452764 1.479869,-3.570162 0.180289,-1.077115 1.503511,-1.956235 2.627169,-1.745436 0.627275,0.117678 1.374817,0.713975 1.711656,1.36535 0.186819,0.361268 0.223529,0.728959 0.154723,1.549685 -0.114193,1.362094 -0.68012,2.555636 -3.832712,8.083211 -3.092132,5.421569 -4.114562,7.80694 -4.114562,9.599444 0,0.683188 0.551728,1.328998 1.135389,1.328998 0.538807,0 2.24291,-0.923428 3.393129,-1.838684 1.475397,-1.17401 4.577921,-4.467864 6.391816,-6.785994 0.888238,-1.135155 1.926439,-2.372468 2.307113,-2.749586 0.55596,-0.550765 1.225497,-1.731036 3.403074,-5.999005 3.015144,-5.909565 3.08646,-6.005474 4.465531,-6.005474 0.937792,0 2.021549,0.49391 2.472079,1.126622 0.443979,0.623509 0.555536,2.110433 0.2188,2.916352 -0.131276,0.314189 -0.208054,0.571252 -0.170617,0.571252 0.03744,0 0.535701,-0.472626 1.107256,-1.050281 1.177312,-1.189878 2.50918,-2.135091 4.011114,-2.846648 2.42847,-1.150512 5.001165,-0.224071 6.06665,2.184633 0.183705,0.415293 0.334851,1.181103 0.381875,1.934817 0.15396,2.467805 -0.715493,4.69034 -3.914208,10.005679 -2.298998,3.82027 -3.184951,5.454891 -3.582009,6.608963 -0.386114,1.122258 -0.38867,1.500193 -0.01244,1.840669 0.27671,0.250418 0.353211,0.252209 1.129845,0.02643 2.460877,-0.715395 6.592193,-4.506071 10.291461,-9.442894 0.842173,-1.123914 1.672026,-2.127508 1.84412,-2.230209 0.172092,-0.1027 0.720971,-0.789835 1.219731,-1.526966 2.706972,-4.000705 6.311157,-7.381976 9.633452,-9.037637 1.9183,-0.955981 3.01346,-1.268117 4.74197,-1.351526 1.74246,-0.08408 2.7027,0.120625 4.26482,0.909179 0.4994,0.252095 0.92694,0.43652 0.9501,0.409833 0.0232,-0.02669 0.81038,-1.502004 1.7494,-3.278481 1.9535,-3.695728 3.07301,-6.127159 3.56126,-7.734614 0.38015,-1.251559 0.90868,-1.902318 1.77803,-2.189232 1.42615,-0.4706682 2.98937,0.732546 2.98937,2.300914 0,0.590588 -1.03673,3.737648 -1.72701,5.242457 -0.68167,1.486028 -3.50678,6.630986 -6.54342,11.916542 -4.10795,7.150291 -4.81284,8.662678 -5.57096,11.952957 -0.24137,1.047551 -0.32598,1.817325 -0.28312,2.575784 0.0778,1.377423 0.29151,1.636229 1.15823,1.402845 1.87157,-0.503962 5.00858,-3.508876 8.64384,-8.279847 1.30251,-1.709427 2.48492,-3.145096 2.62758,-3.190377 0.14267,-0.04528 0.66216,-0.733379 1.15442,-1.529108 1.28875,-2.083226 2.25985,-3.332631 3.97717,-5.11697 3.19374,-3.318361 6.39824,-5.176054 9.49671,-5.505375 2.50859,-0.266625 5.13264,1.156226 6.216,3.370529 0.86257,1.763042 0.64844,4.505127 -0.52959,6.781614 -2.13218,4.120343 -5.89113,6.55087 -10.16044,6.569713 -1.73708,0.0077 -3.23728,-0.43037 -4.86903,-1.421695 -0.56069,-0.340627 -1.03778,-0.600333 -1.06022,-0.577123 -0.0224,0.02321 -0.22484,0.457479 -0.44979,0.965044 -1.47238,3.322162 -1.56026,6.484248 -0.2146,7.721314 0.49513,0.455173 1.64786,0.950844 2.46536,1.060097 0.87629,0.11711 3.24785,-0.374652 4.79562,-0.994413 3.92787,-1.572795 8.77202,-5.412013 12.19909,-9.668358 0.62881,-0.780967 1.37331,-1.595382 1.65444,-1.809815 1.31323,-1.001647 4.42794,-7.972663 5.17408,-11.580074 0.34663,-1.675899 0.42078,-1.836157 1.14292,-2.470204 0.64671,-0.56782 1.14213,-0.720277 1.71743,-0.52851 0.71717,0.239058 1.0489,0.853187 1.0454,1.93539 -0.002,0.524601 -0.035,1.054783 -0.0741,1.178181 -0.0548,0.173157 0.15151,0.25035 0.90396,0.33824 3.42172,0.399678 5.25426,2.231596 5.25426,5.252494 0,2.159067 -0.74143,4.069678 -3.1388,8.088496 -2.84033,4.761377 -3.93635,7.22926 -3.93635,8.863383 0,0.726586 3.1e-4,0.727056 0.46343,0.634439 1.85328,-0.370656 6.15209,-4.932285 9.08048,-9.635639 0.44769,-0.71905 0.99244,-1.506225 1.21056,-1.749278 0.96804,-1.078713 2.19679,-1.027023 2.28997,0.09633 0.0417,0.502147 -0.20074,0.989667 -1.91125,3.844095 -3.2667,5.451369 -4.77515,7.57821 -7.03617,9.920711 -1.72909,1.791407 -2.60831,2.269312 -4.17392,2.268764 -1.30283,-4.61e-4 -2.19591,-0.386887 -3.24056,-1.402175 -1.06732,-1.037312 -1.47336,-2.063093 -1.46891,-3.710918 0.007,-2.605241 1.14348,-5.399705 4.81093,-11.82971 1.64848,-2.890206 2.15733,-4.017864 2.32949,-5.162288 0.0832,-0.552948 0.0669,-0.577762 -0.48029,-0.729727 -0.6514,-0.180922 -1.52036,-0.201583 -2.54894,-0.0606 -0.69694,0.09553 -0.7345,0.128388 -1.27437,1.115105 -3.18278,5.817186 -4.40824,7.738802 -5.17852,8.120294 -0.26697,0.132222 -0.9699,0.858132 -1.56205,1.613135 -2.44448,3.116703 -6.32216,6.950169 -8.92837,8.82656 -1.83978,1.324587 -4.42987,2.599379 -6.06787,2.986485 -1.64044,0.387682 -4.57365,0.425041 -5.91621,0.07535 -3.25491,-0.847795 -5.22398,-3.492985 -5.34847,-7.184947 -0.0221,-0.655332 -0.0748,-1.188876 -0.11707,-1.185652 -0.0423,0.0032 -0.61128,0.781649 -1.26441,1.729839 -2.22058,3.223787 -4.47613,5.498694 -6.38277,6.437543 -1.08037,0.531983 -2.71919,0.499044 -3.92173,-0.07883 -1.63982,-0.788003 -2.93731,-2.476388 -3.15599,-4.106792 -0.0446,-0.332667 -0.11153,-0.604848 -0.14869,-0.604848 -0.0372,0 -0.56444,0.449836 -1.17176,0.999635 -4.212966,3.814019 -7.238851,4.911654 -10.342793,3.751836 -0.670293,-0.250462 -1.161365,-0.589709 -1.848998,-1.277342 -1.162762,-1.162762 -1.61134,-2.219749 -1.719176,-4.050907 -0.0411,-0.697902 -0.117957,-1.267434 -0.170794,-1.265629 -0.05284,0.0018 -0.27851,0.261356 -0.501493,0.576779 -1.642178,2.322942 -4.423455,4.852735 -6.430938,5.849449 -1.091818,0.542085 -1.217923,0.568731 -2.691632,0.568731 -1.810519,0 -2.632532,-0.309253 -3.724481,-1.401202 -1.038996,-1.038996 -1.478723,-2.056294 -1.557547,-3.603361 -0.127124,-2.494983 0.558206,-4.1974 3.96322,-9.844964 2.415513,-4.006377 3.191713,-5.502521 3.621231,-6.980015 0.223557,-0.769003 0.223301,-0.880132 -0.003,-1.317782 -0.135938,-0.262876 -0.347688,-0.516532 -0.470554,-0.56368 -0.122865,-0.04715 -0.724864,0.153273 -1.337773,0.44538 -3.481583,1.659291 -9.468776,9.123018 -15.780383,19.672063 -1.014477,1.695573 -1.885837,2.978312 -2.133293,3.140452 -0.666412,0.43665 -1.702661,0.452288 -2.418075,0.03649 -0.997328,-0.579645 -1.427017,-1.650681 -1.116552,-2.783095 0.105234,-0.38384 -0.02165,-0.311334 -1.155689,0.660402 -2.134989,1.82943 -4.273124,2.698713 -6.006329,2.441943 z m 45.315274,-4.990174 c 2.718444,-1.361716 6.580004,-5.604903 10.070524,-11.065763 1.10306,-1.725715 3.46187,-5.614296 3.8833,-6.40174 0.11083,-0.207085 0.0246,-0.332767 -0.41436,-0.604071 -0.8196,-0.506539 -1.69245,-0.621537 -2.86132,-0.376978 -4.01555,0.840163 -8.894066,5.692775 -11.903584,11.840378 -1.045014,2.13467 -1.483719,3.666281 -1.506947,5.261065 -0.01169,0.802488 0.04346,1.009193 0.359066,1.345816 0.494898,0.527852 1.321236,0.528302 2.373321,0.0012 z M 131.58537,34.131691 c 1.93899,-0.358442 3.82041,-1.770266 5.04458,-3.78547 0.53171,-0.875277 1.02778,-2.350771 1.02778,-3.056959 0,-0.522676 -0.56854,-1.119286 -1.17506,-1.233068 -1.89473,-0.355456 -5.96349,2.429265 -8.50453,5.820638 -0.7405,0.988301 -0.72766,1.067259 0.27424,1.686464 0.43951,0.271636 1.49586,0.597913 2.34041,0.72289 0.0479,0.0071 0.49457,-0.06243 0.99258,-0.154495 z"
     id="path55987" />
  <path
     style="fill:#8a4be6;fill-opacity:1;stroke-width:0.153808"
     d="M 6.529071,7.4949345 C 6.4878221,7.3874416 6.472691,5.6744104 6.4954463,3.6881984 L 6.5368196,0.07690376 8.8823843,0.03444579 11.227949,-0.00801216 V 0.45741647 0.92284512 H 9.3789752 7.5300016 l 0.022333,1.15355638 0.022333,1.1535564 H 9.1705971 10.766526 V 3.6913805 4.152803 H 9.1515474 7.5365685 v 1.307364 1.3073639 h 1.922594 c 1.9199135,0 1.9225935,5.075e-4 1.9225935,0.3643943 0,0.4640453 -0.481482,0.5544375 -2.9656215,0.556758 -1.324781,0.00123 -1.8322334,-0.050864 -1.8870635,-0.1937487 z"
     id="path13074" />
</svg>
